<?xml version="1.0" encoding="iso-8859-1"?>
<!-- Generator: Adobe Illustrator 19.0.0, SVG Export Plug-In . SVG Version: 6.00 Build 0)  -->
<svg version="1.1" id="Layer_1" xmlns="http://www.w3.org/2000/svg" xmlns:xlink="http://www.w3.org/1999/xlink" x="0px" y="0px"
	 viewBox="0 0 460 460" style="enable-background:new 0 0 460 460;" xml:space="preserve">
<g>
	<path style="fill:#FF5419;" d="M230,0C102.975,0,0,102.975,0,230c0,98.967,62.507,183.335,150.196,215.778L447.33,154.523
		C416.094,64.571,330.588,0,230,0z"/>
	<path style="fill:#E03A00;" d="M447.313,154.521l-86.24-86.24L21.407,230l116.782,116.781L100,394.5l50.196,51.27
		C175.058,454.968,201.94,460,230,460c127.025,0,230-102.975,230-230C460,203.559,455.524,178.166,447.313,154.521z"/>
	<polygon style="fill:#FFEDB5;" points="276.563,87.084 276.563,48.281 230,48.281 214.479,87.084 	"/>
	<rect x="183.437" y="48.281" style="fill:#FFFFFF;" width="46.563" height="38.802"/>
	<polygon style="fill:#FFC61B;" points="214.829,371.741 230,394.5 361.073,394.5 361.073,68.281 302,68.281 	"/>
	<polygon style="fill:#C2FBFF;" points="341.07,129 341.07,374.5 230,374.5 210.47,125 	"/>
	<polygon style="fill:#71E2F0;" points="341.07,88.28 341.07,129 230,129 206.66,88.28 	"/>
	<polygon style="fill:#FEE187;" points="158,68.281 100,68.281 100,394.5 230,394.5 230,371.741 	"/>
	<polygon style="fill:#FFFFFF;" points="230,125 230,374.5 118.93,374.5 118.93,129 	"/>
	<rect x="118.93" y="88.28" style="fill:#C2FBFF;" width="111.07" height="40.72"/>
	<polygon style="fill:#FEE187;" points="230,68.281 214.827,88.281 230,108.281 302,108.281 302,68.281 	"/>
	<rect x="158" y="68.281" style="fill:#FFEDB5;" width="72" height="40"/>
	<polygon style="fill:#C2FBFF;" points="138.927,287.5 138.927,307.5 230,307.5 239.5,297.5 230,287.5 	"/>
	<rect x="230" y="287.5" style="fill:#71E2F0;" width="51.073" height="20"/>
	<rect x="301.073" y="287.5" style="fill:#71E2F0;" width="20" height="20"/>
	<polygon style="fill:#C2FBFF;" points="138.927,331 138.927,351 230,351 239.5,341 230,331 	"/>
	<rect x="230" y="331" style="fill:#71E2F0;" width="51.073" height="20"/>
	<rect x="301.073" y="331" style="fill:#71E2F0;" width="20" height="20"/>
	<polygon style="fill:#C2FBFF;" points="138.927,172.5 138.927,152.5 230,152.5 239.5,162.5 230,172.5 	"/>
	<rect x="230" y="152.5" style="fill:#71E2F0;" width="51.073" height="20"/>
	<rect x="301.073" y="152.5" style="fill:#71E2F0;" width="20" height="20"/>
	<polygon style="fill:#FEE187;" points="100,265 21.407,230 100,211.333 	"/>
	<polygon style="fill:#FFFFFF;" points="100,230 21.407,230 100,195 	"/>
	<polygon style="fill:#121149;" points="341.411,264.999 100,265 100,230 351.411,211.333 	"/>
	<polygon style="fill:#366796;" points="351.411,230 100,230 100,195 341.411,195 	"/>
	<rect x="230" y="219.474" style="fill:#FFFFFF;" width="121.411" height="20"/>
	<polygon style="fill:#FEE187;" points="431.411,239.47 431.411,220.53 381.411,220.526 381.411,239.474 	"/>
	<polygon style="fill:#121149;" points="401.64,265 361.64,265 351.64,211.333 401.64,230 	"/>
	<polygon style="fill:#366796;" points="401.64,230 351.64,230 361.64,195 401.64,195 	"/>
	<polygon style="fill:#FEE187;" points="341.411,264.999 341.411,230 346.411,220.666 361.411,230 361.411,264.999 	"/>
	<rect x="341.411" y="195.002" style="fill:#FFFFFF;" width="20" height="35"/>
</g>
<g>
</g>
<g>
</g>
<g>
</g>
<g>
</g>
<g>
</g>
<g>
</g>
<g>
</g>
<g>
</g>
<g>
</g>
<g>
</g>
<g>
</g>
<g>
</g>
<g>
</g>
<g>
</g>
<g>
</g>
</svg>
