<?xml version="1.0" encoding="iso-8859-1"?>
<!-- Generator: Adobe Illustrator 16.0.0, SVG Export Plug-In . SVG Version: 6.00 Build 0)  -->
<!DOCTYPE svg PUBLIC "-//W3C//DTD SVG 1.1//EN" "http://www.w3.org/Graphics/SVG/1.1/DTD/svg11.dtd">
<svg version="1.1" id="Capa_1" xmlns="http://www.w3.org/2000/svg" xmlns:xlink="http://www.w3.org/1999/xlink" x="0px" y="0px"
	 width="53.245px" height="53.244px" viewBox="0 0 53.245 53.244" style="enable-background:new 0 0 53.245 53.244;"
	 xml:space="preserve">
<g>
	<g>
		<path d="M39.182,3.248H14.118c-7.754,0-14.062,6.308-14.062,14.062l0.001,8.635c-0.119,3.307-0.473,19.995,4.283,23.732
			c0.267,0.21,0.595,0.319,0.926,0.319c0.154,0,0.309-0.023,0.459-0.071c0.474-0.151,0.842-0.53,0.982-1.008
			c0.72-2.464,3.456-8.856,7.412-8.856h25.063c7.754,0,14.062-6.308,14.062-14.062v-8.688C53.245,9.555,46.935,3.248,39.182,3.248z
			 M50.245,25.998c0,6.1-4.962,11.062-11.062,11.062H14.118c-4.774,0-7.756,4.896-9.216,8.164
			c-1.588-4.203-2.068-13.021-1.847-19.227V17.31c0-6.1,4.962-11.062,11.062-11.062H39.18c6.1,0,11.062,4.962,11.062,11.062v8.688
			H50.245z"/>
	</g>
</g>
<g>
</g>
<g>
</g>
<g>
</g>
<g>
</g>
<g>
</g>
<g>
</g>
<g>
</g>
<g>
</g>
<g>
</g>
<g>
</g>
<g>
</g>
<g>
</g>
<g>
</g>
<g>
</g>
<g>
</g>
</svg>
